# Exported from ProBuilder
# http://www.procore3d.com/probuilder
# 7/1/2019 7:39:43 PM

mtllib ./NormalBullet.mtl
o NormalBullet

g Cube
v 0 0 0
v -0.1 0 0
v 0 0.1 0
v -0.1 0.1 0
v -0.1 0 0
v -0.1 0 -0.3
v -0.1 0.1 0
v -0.1 0.1 -0.3
v -0.1 0 -0.3
v 0 0 -0.3
v -0.1 0.1 -0.3
v 0 0.1 -0.3
v 0 0 -0.3
v 0 0 0
v 0 0.1 -0.3
v 0 0.1 0
v 0 0.1 0
v -0.1 0.1 0
v 0 0.1 -0.3
v -0.1 0.1 -0.3
v 0 0 -0.3
v -0.1 0 -0.3
v 0 0 0
v -0.1 0 0

vn 0 0 1
vn 0 0 1
vn 0 0 1
vn 0 0 1
vn -1 0 0
vn -1 0 0
vn -1 0 0
vn -1 0 0
vn 0 0 -1
vn 0 0 -1
vn 0 0 -1
vn 0 0 -1
vn 1 0 0
vn 1 0 0
vn 1 0 0
vn 1 0 0
vn 0 1 0
vn 0 1 0
vn 0 1 0
vn 0 1 0
vn 0 -1 0
vn 0 -1 0
vn 0 -1 0
vn 0 -1 0

vt 0.05 -0.05
vt -0.05 -0.05
vt 0.05 0.05
vt -0.05 0.05
vt 0.15 -0.05
vt -0.15 -0.05
vt 0.15 0.05
vt -0.15 0.05
vt 0.05 -0.05
vt -0.05 -0.05
vt 0.05 0.05
vt -0.05 0.05
vt 0.15 -0.05
vt -0.15 -0.05
vt 0.15 0.05
vt -0.15 0.05
vt -0.05 0.15
vt 0.05 0.15
vt -0.05 -0.15
vt 0.05 -0.15
vt 0.05 -0.15
vt -0.05 -0.15
vt 0.05 0.15
vt -0.05 0.15

g Cube
usemtl Default_Prototype
f 3/3/3 4/4/4 2/2/2 1/1/1
f 7/7/7 8/8/8 6/6/6 5/5/5
f 11/11/11 12/12/12 10/10/10 9/9/9
f 15/15/15 16/16/16 14/14/14 13/13/13
f 19/19/19 20/20/20 18/18/18 17/17/17
f 23/23/23 24/24/24 22/22/22 21/21/21

